# xmcd CD database file
#
# Track frame offsets:
#	150
#	13950
#	25650
#	38785
#	55650
#	71707
#	86025
#	101700
#	119497
#	132397
#	149384
#	167581
#	182806
#
# Disc length: 2656 seconds
#
# Revision: 0
# Processed by: cddbd v1.5.2PL0 Copyright (c) Steve Scherf et al.
# Submitted via: CDex 1.51
#
DISCID=b80a5e0d
DTITLE=J. Kirby's Band - Rocky Tequila
DYEAR=1997
DGENRE=Country
TTITLE0=Rocky Tequila
TTITLE1=Out of the Frying Pan
TTITLE2=Ten to Midnignt
TTITLE3=Everybody Likes Me But You 
TTITLE4=Play it Anyway
TTITLE5=One Step Out of Time
TTITLE6=Hit and Run
TTITLE7=Run With the Buffalo
TTITLE8=Riding the Sun
TTITLE9=The Logic of a Gun
TTITLE10=Lucky Luke
TTITLE11=I'm Walkin'
TTITLE12=We Got Love 
EXTD=YEAR: 1997
EXTT0=
EXTT1=
EXTT2=
EXTT3=
EXTT4=
EXTT5=
EXTT6=
EXTT7=
EXTT8=
EXTT9=
EXTT10=
EXTT11=
EXTT12=
PLAYORDER=
